<svg width="24" height="24" viewBox="0 0 28 32" xmlns="http://www.w3.org/2000/svg" xmlns:xlink="http://www.w3.org/1999/xlink"><title>format-csv</title><use xlink:href="#path0_fill" transform="translate(2)" fill="#D2D3D4"/><use xlink:href="#path1_fill" transform="translate(0 14)" fill="#4BB86A"/><use xlink:href="#path2_fill" transform="translate(3 14)" fill="#FFF"/><defs><path id="path0_fill" d="M17.225.441A1.491 1.491 0 0 0 16.16 0H4.47a4.503 4.503 0 0 0-3.16 1.292A4.38 4.38 0 0 0 0 4.41v23.18a4.38 4.38 0 0 0 1.31 3.118A4.503 4.503 0 0 0 4.47 32h17.06a4.503 4.503 0 0 0 3.161-1.292A4.38 4.38 0 0 0 26 27.59V9.874a1.46 1.46 0 0 0-.425-1.029L17.225.441zm.373 4.571l3.726 3.738h-3.726V5.012zm3.93 24.048H4.472a1.5 1.5 0 0 1-1.054-.43 1.46 1.46 0 0 1-.436-1.04V4.41c0-.39.157-.764.436-1.04.28-.275.659-.43 1.054-.43h10.142v6.545c0 .584.236 1.145.655 1.559.42.413.988.646 1.581.646h6.17v15.9c0 .39-.157.764-.436 1.04a1.5 1.5 0 0 1-1.054.43z"/><path id="path1_fill" d="M0 2a2 2 0 0 1 2-2h17a2 2 0 0 1 2 2v8a2 2 0 0 1-2 2H2a2 2 0 0 1-2-2V2z"/><path id="path2_fill" d="M3.145 4.215c-.456 0-.81.172-1.06.515-.25.342-.374.818-.374 1.43 0 1.274.478 1.91 1.434 1.91.4 0 .886-.1 1.457-.3v1.015a4.046 4.046 0 0 1-1.57.293c-.831 0-1.467-.251-1.907-.754-.44-.505-.66-1.229-.66-2.172 0-.593.108-1.113.324-1.558.216-.448.526-.79.93-1.028.406-.24.881-.359 1.426-.359.554 0 1.112.134 1.671.402l-.39.985a6.468 6.468 0 0 0-.645-.266 1.923 1.923 0 0 0-.636-.113zm6.046 3.2c0 .515-.186.92-.558 1.218-.37.297-.886.445-1.547.445-.61 0-1.149-.114-1.617-.344V7.61c.385.172.71.293.976.364.269.07.513.105.735.105.265 0 .468-.05.61-.152.142-.102.214-.253.214-.453a.492.492 0 0 0-.094-.297 1.022 1.022 0 0 0-.277-.254 6.85 6.85 0 0 0-.738-.387c-.35-.164-.611-.321-.786-.473a1.774 1.774 0 0 1-.418-.527 1.505 1.505 0 0 1-.156-.703c0-.505.17-.902.512-1.191.344-.29.818-.434 1.422-.434.297 0 .58.035.847.106.271.07.554.169.848.296l-.39.942a5.663 5.663 0 0 0-.758-.262 2.41 2.41 0 0 0-.586-.074c-.23 0-.405.053-.528.16a.528.528 0 0 0-.183.418c0 .107.024.2.074.281.05.078.128.155.234.23.11.074.366.206.77.4.534.254.9.51 1.098.769.197.255.296.569.296.941zm4.293-4.126h1.223L12.766 9h-1.32L9.507 3.29h1.223l1.074 3.397c.06.201.12.435.183.704.065.265.106.45.121.554.029-.24.127-.659.293-1.258l1.082-3.398z"/></defs></svg>