<svg width="80" height="45" viewBox="0 0 80 45" fill="none" xmlns="http://www.w3.org/2000/svg">
<g clip-path="url(#clip0_7_44)">
<path d="M4.32 44.44C1.92 44.44 0 42.44 0 39.96V15.64C0 7 6.72 0 15.04 0H75.12C77.52 0 79.44 2 79.44 4.48V28.8C79.44 37.44 72.72 44.44 64.4 44.44H4.32Z" fill="#C8030F"/>
<path fill-rule="evenodd" clip-rule="evenodd" d="M12.12 8.35998V33.32H21.2C23.48 33.32 27.24 32.88 30.28 29.44C33.36 26 33.64 22.48 33.64 20.48C33.64 18.48 33.36 15.28 29.76 11.68C26.28 8.19998 22.12 8.27998 21.08 8.31998C21 8.31998 20.96 8.31998 20.92 8.31998C20.32 8.35998 12.12 8.35998 12.12 8.35998ZM18.08 14.52H21.76C23.44 14.52 27.56 16.32 27.56 20.68C27.56 25.36 23.4 27.32 21.76 27.32H18.08L18.04 20.68L18.08 14.52ZM36.36 33.32V15.32L41.76 12.48V33.32H36.36Z" fill="white"/>
<path fill-rule="evenodd" clip-rule="evenodd" d="M45.76 24.44C45.76 18.68 50.16 13.88 55.8 13.88C61.4 13.88 65.96 18.56 65.96 24.28V34.4L61.48 32.16C61.48 32.16 59.04 34.72 55.8 34.72C50.04 34.72 45.76 30.2 45.76 24.44ZM51.48 24.36C51.48 26.84 53.44 28.84 55.88 28.84C58.32 28.84 60.28 26.84 60.28 24.36C60.28 21.88 58.32 19.88 55.88 19.88C53.44 19.88 51.48 21.88 51.48 24.36Z" fill="white"/>
</g>
<defs>
<clipPath id="clip0_7_44">
<rect width="80" height="44.8" fill="white"/>
</clipPath>
</defs>
</svg>
